<svg width="20" height="20" viewBox="0 0 20 20" fill="none" xmlns="http://www.w3.org/2000/svg">
<path d="M14.1416 10.2085V13.9585C14.1416 17.0835 12.8916 18.3335 9.7666 18.3335H6.0166C2.8916 18.3335 1.6416 17.0835 1.6416 13.9585V10.2085C1.6416 7.0835 2.8916 5.8335 6.0166 5.8335H9.7666C12.8916 5.8335 14.1416 7.0835 14.1416 10.2085Z" stroke="white" stroke-width="1.2" stroke-linecap="round" stroke-linejoin="round"/>
<path d="M18.3083 4.87484V7.62484C18.3083 9.9165 17.3916 10.8332 15.0999 10.8332H14.1416V10.2082C14.1416 7.08317 12.8916 5.83317 9.7666 5.83317H9.1416V4.87484C9.1416 2.58317 10.0583 1.6665 12.3499 1.6665H15.0999C17.3916 1.6665 18.3083 2.58317 18.3083 4.87484Z" stroke="white" stroke-width="1.2" stroke-linecap="round" stroke-linejoin="round"/>
</svg>
