<svg width="20" height="20" viewBox="0 0 20 20" fill="none" xmlns="http://www.w3.org/2000/svg">
<g clip-path="url(#clip0_99_830)">
<path d="M7.91683 16.2498V14.9998H3.75016C3.29183 14.9998 2.87516 14.8165 2.57516 14.5082C2.26683 14.2082 2.0835 13.7915 2.0835 13.3332C2.0835 12.4748 2.75016 11.7582 3.59183 11.6748C3.64183 11.6665 3.69183 11.6665 3.75016 11.6665H16.2502C16.3085 11.6665 16.3585 11.6665 16.4085 11.6748C16.8085 11.7082 17.1585 11.8832 17.4252 12.1582C17.7668 12.4915 17.9502 12.9665 17.9085 13.4832C17.8335 14.3582 17.0418 14.9998 16.1585 14.9998H12.0835V16.2498C12.0835 17.3998 11.1502 18.3332 10.0002 18.3332C8.85016 18.3332 7.91683 17.3998 7.91683 16.2498Z" stroke="white" stroke-width="1.2" stroke-linecap="round" stroke-linejoin="round"/>
<path d="M16.8085 4.4165L16.4085 11.6748C16.3585 11.6665 16.3085 11.6665 16.2501 11.6665H3.75014C3.6918 11.6665 3.6418 11.6665 3.5918 11.6748L3.1918 4.4165C3.0418 2.9415 4.20014 1.6665 5.67514 1.6665H14.3251C15.8001 1.6665 16.9585 2.9415 16.8085 4.4165Z" stroke="white" stroke-width="1.2" stroke-linecap="round" stroke-linejoin="round"/>
<path d="M6.6582 1.6665V5.83317" stroke="white" stroke-width="1.2" stroke-linecap="round" stroke-linejoin="round"/>
<path d="M10 1.6665V3.33317" stroke="white" stroke-width="1.2" stroke-linecap="round" stroke-linejoin="round"/>
</g>
<defs>
<clipPath id="clip0_99_830">
<rect width="20" height="20" fill="white"/>
</clipPath>
</defs>
</svg>
