<svg width="20" height="20" viewBox="0 0 20 20" fill="none" xmlns="http://www.w3.org/2000/svg">
<path d="M7.5 10.0159L9.17228 11.6864C9.97659 10.28 11.0897 9.07451 12.4276 8.16088L12.5 8.11147M8.95858 1.97332L4.46892 3.59459C3.51126 3.94041 2.85901 4.83246 2.81988 5.84989L2.71383 8.60704C2.58243 12.0235 4.36324 15.2291 7.33331 16.9225L8.60054 17.6451C9.35122 18.0731 10.2697 18.0831 11.0295 17.6715L12.2701 16.9996C15.4512 15.2765 17.3213 11.8435 17.0438 8.23634L16.8547 5.77759C16.7793 4.79713 16.1361 3.95194 15.2112 3.61795L10.6568 1.97332C10.1081 1.77517 9.50731 1.77517 8.95858 1.97332Z" stroke="white" stroke-width="1.2" stroke-linecap="round" stroke-linejoin="round"/>
</svg>
