<svg width="20" height="20" viewBox="0 0 20 20" fill="none" xmlns="http://www.w3.org/2000/svg">
<path d="M8.31068 15H9.16651V10.8333H10.8332V15H11.689C11.799 13.9983 12.3098 13.1716 13.139 12.2691C13.2332 12.1675 13.8323 11.5466 13.9032 11.4583C14.4918 10.723 14.8607 9.83641 14.9674 8.90062C15.0742 7.96484 14.9145 7.01793 14.5067 6.16893C14.0989 5.31993 13.4596 4.60338 12.6624 4.10179C11.8652 3.60021 10.9426 3.33398 10.0007 3.33378C9.05889 3.33358 8.13613 3.59941 7.33873 4.10066C6.54133 4.6019 5.90172 5.31818 5.49356 6.167C5.0854 7.01583 4.92529 7.96267 5.03167 8.8985C5.13805 9.83433 5.50659 10.7211 6.09484 11.4566C6.16651 11.5458 6.76735 12.1675 6.85985 12.2683C7.68985 13.1716 8.20068 13.9983 8.31068 15V15ZM8.33318 16.6666V17.5H11.6665V16.6666H8.33318ZM4.79484 12.5C4.01 11.5194 3.51813 10.337 3.3759 9.08912C3.23366 7.8412 3.44684 6.57849 3.99089 5.44643C4.53493 4.31438 5.38771 3.35904 6.45097 2.69047C7.51424 2.02189 8.74475 1.66728 10.0007 1.66748C11.2567 1.66768 12.4871 2.02269 13.5502 2.6916C14.6132 3.36052 15.4657 4.31613 16.0094 5.44836C16.5531 6.58059 16.7659 7.84337 16.6232 9.09124C16.4806 10.3391 15.9883 11.5213 15.2032 12.5016C14.6865 13.145 13.3332 14.1666 13.3332 15.4166V17.5C13.3332 17.942 13.1576 18.3659 12.845 18.6785C12.5325 18.9911 12.1085 19.1666 11.6665 19.1666H8.33318C7.89115 19.1666 7.46723 18.9911 7.15467 18.6785C6.84211 18.3659 6.66651 17.942 6.66651 17.5V15.4166C6.66651 14.1666 5.31234 13.145 4.79484 12.5Z" fill="white"/>
</svg>
