<svg width="20" height="20" viewBox="0 0 20 20" fill="none" xmlns="http://www.w3.org/2000/svg">
<g clip-path="url(#clip0_99_818)">
<path d="M9.99984 1.6665C14.6023 1.6665 18.3332 5.39734 18.3332 9.99984C18.3332 14.6023 14.6023 18.3332 9.99984 18.3332C5.39734 18.3332 1.6665 14.6023 1.6665 9.99984H3.33317C3.33317 13.6815 6.31817 16.6665 9.99984 16.6665C13.6815 16.6665 16.6665 13.6815 16.6665 9.99984C16.6665 6.31817 13.6815 3.33317 9.99984 3.33317C7.70817 3.33317 5.6865 4.489 4.48734 6.24984H6.6665V7.9165H1.6665V2.9165H3.33317V4.99984C4.85317 2.97484 7.274 1.6665 9.99984 1.6665ZM10.8332 5.83317V9.654L13.5357 12.3565L12.3565 13.5357L9.1665 10.344V5.83317H10.8332Z" fill="white"/>
</g>
<defs>
<clipPath id="clip0_99_818">
<rect width="20" height="20" fill="white"/>
</clipPath>
</defs>
</svg>
