<svg width="20" height="20" viewBox="0 0 20 20" fill="none" xmlns="http://www.w3.org/2000/svg">
<path d="M14.5415 14.4164C13.1415 14.4164 11.8499 13.7581 11.0082 12.5998C10.8082 12.3248 10.8665 11.9331 11.1415 11.7248C11.4165 11.5164 11.8082 11.5831 12.0165 11.8581C12.6249 12.6831 13.5415 13.1581 14.5415 13.1581C16.2832 13.1581 17.7082 11.7414 17.7082 9.99144C17.7082 8.24144 16.2915 6.82477 14.5415 6.82477C13.3582 6.82477 12.2415 7.45811 11.6332 8.46644L9.42487 12.1414C8.59154 13.5331 7.06654 14.3914 5.44987 14.3914C3.01654 14.3914 1.0332 12.4081 1.0332 9.97477C1.0332 7.54144 3.01654 5.55811 5.44987 5.55811C6.84987 5.55811 8.14154 6.21644 8.9832 7.37477C9.1832 7.64977 9.12487 8.04144 8.84987 8.24977C8.56654 8.45811 8.1832 8.39144 7.97487 8.11644C7.37487 7.30811 6.4582 6.83311 5.4582 6.83311C3.71654 6.83311 2.29154 8.24977 2.29154 9.99977C2.29154 11.7498 3.7082 13.1664 5.4582 13.1664C6.64154 13.1664 7.7582 12.5331 8.36654 11.5248L10.5749 7.84977C11.4082 6.45811 12.9332 5.59977 14.5499 5.59977C16.9832 5.59977 18.9665 7.58311 18.9665 10.0164C18.9665 12.4498 16.9749 14.4164 14.5415 14.4164Z" fill="white"/>
<path d="M5.41667 11.6668C6.33714 11.6668 7.08333 10.9206 7.08333 10.0002C7.08333 9.07969 6.33714 8.3335 5.41667 8.3335C4.49619 8.3335 3.75 9.07969 3.75 10.0002C3.75 10.9206 4.49619 11.6668 5.41667 11.6668Z" fill="white"/>
<path d="M14.5832 11.6668C15.5036 11.6668 16.2498 10.9206 16.2498 10.0002C16.2498 9.07969 15.5036 8.3335 14.5832 8.3335C13.6627 8.3335 12.9165 9.07969 12.9165 10.0002C12.9165 10.9206 13.6627 11.6668 14.5832 11.6668Z" fill="white"/>
</svg>
