<svg width="20" height="20" viewBox="0 0 20 20" fill="none" xmlns="http://www.w3.org/2000/svg">
<path d="M6.25016 3.3335H13.7502C14.2668 3.3335 14.7252 3.35016 15.1335 3.4085C17.3252 3.65016 17.9168 4.6835 17.9168 7.50016V12.5002C17.9168 15.3168 17.3252 16.3502 15.1335 16.5918C14.7252 16.6502 14.2668 16.6668 13.7502 16.6668H6.25016C5.7335 16.6668 5.27516 16.6502 4.86683 16.5918C2.67516 16.3502 2.0835 15.3168 2.0835 12.5002V7.50016C2.0835 4.6835 2.67516 3.65016 4.86683 3.4085C5.27516 3.35016 5.7335 3.3335 6.25016 3.3335Z" stroke="white" stroke-width="1.2" stroke-linecap="round" stroke-linejoin="round"/>
<path d="M11.25 8.3335H14.1667" stroke="white" stroke-width="1.2" stroke-linecap="round" stroke-linejoin="round"/>
<path d="M5.8335 12.9165H5.85016H14.1668" stroke="white" stroke-width="1.2" stroke-linecap="round" stroke-linejoin="round"/>
<path d="M8.41209 8.33317H8.41957" stroke="white" stroke-width="1.2" stroke-linecap="round" stroke-linejoin="round"/>
<path d="M5.91209 8.33317H5.91957" stroke="white" stroke-width="1.2" stroke-linecap="round" stroke-linejoin="round"/>
</svg>
