<svg width="20" height="20" viewBox="0 0 20 20" fill="none" xmlns="http://www.w3.org/2000/svg">
<path d="M8.3335 13.3332C8.3335 11.9498 8.3335 10.8332 10.8335 10.8332H14.1668C16.6668 10.8332 16.6668 9.99984 16.6668 8.33317V6.6665C16.6668 4.99984 16.6668 4.1665 14.1668 4.1665H13.3335" stroke="white" stroke-width="1.2" stroke-linecap="round" stroke-linejoin="round"/>
<path d="M9.99984 1.6665H6.6665C6.12484 3.2915 6.12484 5.0415 6.6665 6.6665H9.99984C10.5415 5.0415 10.5415 3.2915 9.99984 1.6665Z" stroke="white" stroke-width="1.2" stroke-linecap="round" stroke-linejoin="round"/>
<path d="M6.66683 1.6665H5.8335C4.16683 1.6665 3.3335 2.49984 3.3335 4.1665C3.3335 5.83317 4.16683 6.6665 5.8335 6.6665H6.66683C5.8335 4.99984 5.8335 3.33317 6.66683 1.6665Z" stroke="white" stroke-width="1.2" stroke-linecap="round" stroke-linejoin="round"/>
<path d="M10.8333 1.6665H10C10.8333 3.33317 10.8333 4.99984 10 6.6665H10.8333C12.5 6.6665 13.3333 5.83317 13.3333 4.1665C13.3333 2.49984 12.5 1.6665 10.8333 1.6665Z" stroke="white" stroke-width="1.2" stroke-linecap="round" stroke-linejoin="round"/>
<path d="M7.9165 18.3335H8.74984C9.99984 18.3335 9.99984 17.5002 9.99984 17.0835V14.5835C9.99984 14.1668 9.99984 13.3335 8.74984 13.3335H7.9165C6.6665 13.3335 6.6665 14.1668 6.6665 14.5835V17.0835C6.6665 17.5002 6.6665 18.3335 7.9165 18.3335Z" stroke="white" stroke-width="1.2" stroke-linecap="round" stroke-linejoin="round"/>
</svg>
