<svg width="20" height="20" viewBox="0 0 20 20" fill="none" xmlns="http://www.w3.org/2000/svg">
<path d="M12.825 4.3415L13.9999 6.6915C14.1583 7.0165 14.5833 7.32483 14.9416 7.39149L17.0666 7.74149C18.425 7.96649 18.7416 8.94983 17.7666 9.93316L16.1083 11.5915C15.8333 11.8665 15.675 12.4082 15.7666 12.7998L16.2416 14.8498C16.6166 16.4665 15.75 17.0998 14.325 16.2498L12.3333 15.0665C11.9749 14.8498 11.375 14.8498 11.0166 15.0665L9.02495 16.2498C7.59995 17.0915 6.73329 16.4665 7.10829 14.8498L7.5833 12.7998C7.67496 12.4165 7.51663 11.8748 7.24163 11.5915L5.5833 9.93316C4.6083 8.95816 4.92497 7.97483 6.2833 7.74149L8.40829 7.39149C8.76662 7.33316 9.19163 7.0165 9.34996 6.6915L10.525 4.3415C11.15 3.0665 12.1833 3.0665 12.825 4.3415Z" stroke="white" stroke-width="1.2" stroke-linecap="round" stroke-linejoin="round"/>
<path d="M6.6665 4.1665H1.6665" stroke="white" stroke-width="1.2" stroke-linecap="round" stroke-linejoin="round"/>
<path d="M4.1665 15.8335H1.6665" stroke="white" stroke-width="1.2" stroke-linecap="round" stroke-linejoin="round"/>
<path d="M2.49984 10H1.6665" stroke="white" stroke-width="1.2" stroke-linecap="round" stroke-linejoin="round"/>
</svg>
