<svg width="20" height="20" viewBox="0 0 20 20" fill="none" xmlns="http://www.w3.org/2000/svg">
<path d="M16.6668 6.87484V14.9998C16.6668 17.4998 15.1752 18.3332 13.3335 18.3332H6.66683C4.82516 18.3332 3.3335 17.4998 3.3335 14.9998V6.87484C3.3335 4.1665 4.82516 3.5415 6.66683 3.5415C6.66683 4.05817 6.87514 4.52483 7.21681 4.8665C7.55847 5.20817 8.02516 5.4165 8.54183 5.4165H11.4585C12.4918 5.4165 13.3335 4.57484 13.3335 3.5415C15.1752 3.5415 16.6668 4.1665 16.6668 6.87484Z" stroke="white" stroke-width="1.2" stroke-linecap="round" stroke-linejoin="round"/>
<path d="M13.3332 3.5415C13.3332 4.57484 12.4915 5.4165 11.4582 5.4165H8.5415C8.02484 5.4165 7.55815 5.20817 7.21648 4.8665C6.87481 4.52483 6.6665 4.05817 6.6665 3.5415C6.6665 2.50817 7.50817 1.6665 8.5415 1.6665H11.4582C11.9748 1.6665 12.4415 1.87484 12.7832 2.21651C13.1249 2.55817 13.3332 3.02484 13.3332 3.5415Z" stroke="white" stroke-width="1.2" stroke-linecap="round" stroke-linejoin="round"/>
<path d="M6.6665 10.8335H9.99984" stroke="white" stroke-width="1.2" stroke-linecap="round" stroke-linejoin="round"/>
<path d="M6.6665 14.1665H13.3332" stroke="white" stroke-width="1.2" stroke-linecap="round" stroke-linejoin="round"/>
</svg>
