<svg width="130" height="108" viewBox="0 0 130 108" fill="none" xmlns="http://www.w3.org/2000/svg">
<path d="M13.2054 71.8345V7.97182V3.30452C13.5696 0.663499 15.4821 0.0032253 16.3928 0.00321618C40.071 -0.178923 56.7671 13.8914 62.1554 20.9493V95.968C51.7734 85.7682 35.9728 79.879 29.3703 78.2094C26.0007 76.7523 19.2387 76.0844 16.279 75.9326C13.5469 75.3862 13.0915 72.9729 13.2054 71.8345Z" fill="white"/>
<path d="M116.797 71.833V7.97036V3.30306C116.433 0.662034 114.52 0.00176046 113.61 0.00175133C89.9315 -0.180388 73.2354 13.8899 67.8471 20.9478V95.9665C78.229 85.7667 94.0296 79.8775 100.632 78.2079C104.002 76.7508 110.764 76.0829 113.723 75.9312C116.456 75.3848 116.911 72.9714 116.797 71.833Z" fill="white"/>
<path d="M3.64279 12.0686C0.728558 11.8865 0 14.1177 0 15.2561V86.4044C0.18214 88.6811 2.35264 89.5538 3.41512 89.7056C26.729 89.2503 45.5349 96.5738 52.0236 100.292C55.5753 106.85 62.4587 108.109 65.4564 107.92C73.7437 107.282 77.4093 102.569 78.2062 100.292C95.3273 90.8212 117.594 89.3641 126.587 89.8195C129.41 89.0909 130.04 86.9356 130.002 85.949V15.7115C129.729 13.1615 127.46 12.7517 126.359 12.8655C123.627 12.7745 122.716 14.7249 122.603 15.7115V82.3062C99.4709 82.2151 79.9517 91.8306 73.0835 96.6497C66.7997 103.662 59.6127 99.5715 56.8048 96.6497C40.0479 84.8106 16.6582 82.2303 7.05791 82.4201V15.2561C6.96684 12.615 4.74322 12.0306 3.64279 12.0686Z" fill="white"/>
</svg>
