<svg width="24" height="24" viewBox="0 0 24 24" fill="none" xmlns="http://www.w3.org/2000/svg">
<path d="M12.0005 2.74512C12.4613 2.74515 12.8922 2.82648 13.2046 2.96387V2.96484L19.0649 5.5752L19.0669 5.57617C19.7058 5.85925 20.0053 6.16331 20.1499 6.38574C20.2938 6.60718 20.3198 6.80289 20.3198 6.92969C20.3198 7.0521 20.2933 7.24865 20.147 7.47266C20.0186 7.66909 19.7722 7.92677 19.2876 8.17773L19.0649 8.28516L13.2046 10.8945V10.8955C12.8882 11.0347 12.4562 11.1201 12.0005 11.1201C11.544 11.1201 11.111 11.0342 10.7944 10.8945H10.7954L4.93604 8.28516C4.30124 8.00207 3.9997 7.69722 3.85303 7.47266C3.70674 7.24865 3.68018 7.0521 3.68018 6.92969C3.68024 6.80725 3.70693 6.61143 3.85303 6.3877C3.99967 6.16314 4.30033 5.8573 4.93506 5.57422L10.7935 2.96582C11.1062 2.8277 11.5382 2.74512 12.0005 2.74512Z" fill="white" stroke="white" stroke-width="1.5"/>
<mask id="path-2-inside-1_88_802" fill="white">
<path d="M12.0001 17.04C11.6201 17.04 11.2401 16.96 10.8901 16.81L4.15007 13.81C3.12007 13.35 2.32007 12.12 2.32007 10.99C2.32007 10.58 2.65007 10.25 3.06007 10.25C3.47007 10.25 3.80007 10.58 3.80007 10.99C3.80007 11.53 4.25007 12.23 4.75007 12.45L11.4901 15.45C11.8101 15.59 12.1801 15.59 12.5001 15.45L19.2401 12.45C19.7401 12.23 20.1901 11.54 20.1901 10.99C20.1901 10.58 20.5201 10.25 20.9301 10.25C21.3401 10.25 21.6701 10.58 21.6701 10.99C21.6701 12.11 20.8701 13.35 19.8401 13.81L13.1001 16.81C12.7601 16.96 12.3801 17.04 12.0001 17.04Z"/>
</mask>
<path d="M12.0001 17.04C11.6201 17.04 11.2401 16.96 10.8901 16.81L4.15007 13.81C3.12007 13.35 2.32007 12.12 2.32007 10.99C2.32007 10.58 2.65007 10.25 3.06007 10.25C3.47007 10.25 3.80007 10.58 3.80007 10.99C3.80007 11.53 4.25007 12.23 4.75007 12.45L11.4901 15.45C11.8101 15.59 12.1801 15.59 12.5001 15.45L19.2401 12.45C19.7401 12.23 20.1901 11.54 20.1901 10.99C20.1901 10.58 20.5201 10.25 20.9301 10.25C21.3401 10.25 21.6701 10.58 21.6701 10.99C21.6701 12.11 20.8701 13.35 19.8401 13.81L13.1001 16.81C12.7601 16.96 12.3801 17.04 12.0001 17.04Z" fill="white"/>
<path d="M10.8901 16.81L10.2801 18.1804L10.2896 18.1846L10.2992 18.1887L10.8901 16.81ZM4.15007 13.81L3.53839 15.1796L3.54011 15.1804L4.15007 13.81ZM4.75007 12.45L5.36004 11.0796L5.35418 11.077L4.75007 12.45ZM11.4901 15.45L10.8801 16.8204L10.8888 16.8242L11.4901 15.45ZM12.5001 15.45L13.1013 16.8243L13.11 16.8204L12.5001 15.45ZM19.2401 12.45L18.636 11.077L18.6301 11.0796L19.2401 12.45ZM19.8401 13.81L20.45 15.1804L20.4517 15.1796L19.8401 13.81ZM13.1001 16.81L13.7055 18.1824L13.71 18.1804L13.1001 16.81ZM12.0001 17.04V15.54C11.8287 15.54 11.6493 15.5034 11.4809 15.4313L10.8901 16.81L10.2992 18.1887C10.8308 18.4166 11.4115 18.54 12.0001 18.54V17.04ZM10.8901 16.81L11.5 15.4396L4.76003 12.4396L4.15007 13.81L3.54011 15.1804L10.2801 18.1804L10.8901 16.81ZM4.15007 13.81L4.76174 12.4404C4.55635 12.3487 4.3074 12.1432 4.10684 11.8343C3.90631 11.5255 3.82007 11.2149 3.82007 10.99H2.32007H0.820068C0.820068 11.8951 1.13383 12.7645 1.5908 13.4682C2.04774 14.1718 2.71379 14.8113 3.53839 15.1796L4.15007 13.81ZM2.32007 10.99H3.82007C3.82007 11.4084 3.4785 11.75 3.06007 11.75V10.25V8.75C1.82164 8.75 0.820068 9.75157 0.820068 10.99H2.32007ZM3.06007 10.25V11.75C2.64164 11.75 2.30007 11.4084 2.30007 10.99H3.80007H5.30007C5.30007 9.75157 4.2985 8.75 3.06007 8.75V10.25ZM3.80007 10.99H2.30007C2.30007 11.6354 2.55065 12.2266 2.82884 12.6558C3.10704 13.0851 3.54727 13.5595 4.14596 13.823L4.75007 12.45L5.35418 11.077C5.3871 11.0915 5.4067 11.1042 5.41399 11.1092C5.42149 11.1143 5.42105 11.1148 5.41417 11.1084C5.39883 11.0941 5.37302 11.0654 5.3463 11.0242C5.3196 10.983 5.3035 10.947 5.29625 10.926C5.29298 10.9165 5.29345 10.9157 5.29498 10.9239C5.29646 10.9318 5.30007 10.9543 5.30007 10.99H3.80007ZM4.75007 12.45L4.14011 13.8204L10.8801 16.8204L11.4901 15.45L12.1 14.0796L5.36003 11.0796L4.75007 12.45ZM11.4901 15.45L10.8888 16.8242C11.5921 17.1319 12.398 17.1319 13.1013 16.8242L12.5001 15.45L11.8988 14.0758C11.9621 14.0481 12.028 14.0481 12.0913 14.0758L11.4901 15.45ZM12.5001 15.45L13.11 16.8204L19.85 13.8204L19.2401 12.45L18.6301 11.0796L11.8901 14.0796L12.5001 15.45ZM19.2401 12.45L19.8442 13.823C20.4375 13.5619 20.8781 13.0945 21.1596 12.6623C21.4414 12.2295 21.6901 11.6379 21.6901 10.99H20.1901H18.6901C18.6901 10.9573 18.6933 10.9366 18.6947 10.9293C18.6961 10.9217 18.6965 10.9226 18.6934 10.9316C18.6865 10.9516 18.6712 10.9859 18.6456 11.0252C18.6199 11.0646 18.595 11.0922 18.5801 11.106C18.5733 11.1122 18.5727 11.1119 18.5797 11.1071C18.5865 11.1025 18.6049 11.0907 18.636 11.077L19.2401 12.45ZM20.1901 10.99H21.6901C21.6901 11.4084 21.3485 11.75 20.9301 11.75V10.25V8.75C19.6916 8.75 18.6901 9.75157 18.6901 10.99H20.1901ZM20.9301 10.25V11.75C20.5116 11.75 20.1701 11.4084 20.1701 10.99H21.6701H23.1701C23.1701 9.75157 22.1685 8.75 20.9301 8.75V10.25ZM21.6701 10.99H20.1701C20.1701 11.2085 20.0847 11.5196 19.8824 11.832C19.6802 12.1441 19.4308 12.35 19.2284 12.4404L19.8401 13.81L20.4517 15.1796C21.2793 14.81 21.945 14.1659 22.4003 13.463C22.8554 12.7604 23.1701 11.8915 23.1701 10.99H21.6701ZM19.8401 13.81L19.2301 12.4396L12.4901 15.4396L13.1001 16.81L13.71 18.1804L20.45 15.1804L19.8401 13.81ZM13.1001 16.81L12.4946 15.4376C12.3477 15.5024 12.1742 15.54 12.0001 15.54V17.04V18.54C12.586 18.54 13.1724 18.4176 13.7055 18.1824L13.1001 16.81Z" fill="white" mask="url(#path-2-inside-1_88_802)"/>
<mask id="path-4-inside-2_88_802" fill="white">
<path d="M12.0001 22C11.6201 22 11.2401 21.92 10.8901 21.77L4.15007 18.77C3.04007 18.28 2.32007 17.17 2.32007 15.95C2.32007 15.54 2.65007 15.21 3.06007 15.21C3.47007 15.21 3.80007 15.54 3.80007 15.95C3.80007 16.58 4.17007 17.15 4.75007 17.41L11.4901 20.41C11.8101 20.55 12.1801 20.55 12.5001 20.41L19.2401 17.41C19.8101 17.16 20.1901 16.58 20.1901 15.95C20.1901 15.54 20.5201 15.21 20.9301 15.21C21.3401 15.21 21.6701 15.54 21.6701 15.95C21.6701 17.17 20.9501 18.27 19.8401 18.77L13.1001 21.77C12.7601 21.92 12.3801 22 12.0001 22Z"/>
</mask>
<path d="M12.0001 22C11.6201 22 11.2401 21.92 10.8901 21.77L4.15007 18.77C3.04007 18.28 2.32007 17.17 2.32007 15.95C2.32007 15.54 2.65007 15.21 3.06007 15.21C3.47007 15.21 3.80007 15.54 3.80007 15.95C3.80007 16.58 4.17007 17.15 4.75007 17.41L11.4901 20.41C11.8101 20.55 12.1801 20.55 12.5001 20.41L19.2401 17.41C19.8101 17.16 20.1901 16.58 20.1901 15.95C20.1901 15.54 20.5201 15.21 20.9301 15.21C21.3401 15.21 21.6701 15.54 21.6701 15.95C21.6701 17.17 20.9501 18.27 19.8401 18.77L13.1001 21.77C12.7601 21.92 12.3801 22 12.0001 22Z" fill="white"/>
<path d="M10.8901 21.77L10.2801 23.1403L10.2896 23.1446L10.2992 23.1487L10.8901 21.77ZM4.15007 18.77L4.76003 17.3996L4.75583 17.3977L4.15007 18.77ZM4.75007 17.41L4.13648 18.7787L4.14011 18.7803L4.75007 17.41ZM11.4901 20.41L10.8801 21.7804L10.8888 21.7842L11.4901 20.41ZM12.5001 20.41L13.1013 21.7842L13.11 21.7803L12.5001 20.41ZM19.2401 17.41L18.6376 16.0363L18.6301 16.0396L19.2401 17.41ZM19.8401 18.77L20.45 20.1404L20.4561 20.1376L19.8401 18.77ZM13.1001 21.77L13.7055 23.1423L13.71 23.1403L13.1001 21.77ZM12.0001 22V20.5C11.8286 20.5 11.6493 20.4634 11.4809 20.3912L10.8901 21.77L10.2992 23.1487C10.8308 23.3765 11.4115 23.5 12.0001 23.5V22ZM10.8901 21.77L11.5 20.3996L4.76003 17.3996L4.15007 18.77L3.54011 20.1403L10.2801 23.1403L10.8901 21.77ZM4.15007 18.77L4.75583 17.3977C4.19368 17.1496 3.82007 16.5805 3.82007 15.95H2.32007H0.820068C0.820068 17.7594 1.88646 19.4104 3.5443 20.1422L4.15007 18.77ZM2.32007 15.95H3.82007C3.82007 16.3684 3.4785 16.71 3.06007 16.71V15.21V13.71C1.82164 13.71 0.820068 14.7115 0.820068 15.95H2.32007ZM3.06007 15.21V16.71C2.64164 16.71 2.30007 16.3684 2.30007 15.95H3.80007H5.30007C5.30007 14.7115 4.2985 13.71 3.06007 13.71V15.21ZM3.80007 15.95H2.30007C2.30007 17.1754 3.0212 18.2788 4.13648 18.7787L4.75007 17.41L5.36365 16.0412C5.31894 16.0212 5.30007 15.9845 5.30007 15.95H3.80007ZM4.75007 17.41L4.14011 18.7803L10.8801 21.7803L11.4901 20.41L12.1 19.0396L5.36003 16.0396L4.75007 17.41ZM11.4901 20.41L10.8888 21.7842C11.5921 22.0919 12.398 22.0919 13.1013 21.7842L12.5001 20.41L11.8988 19.0357C11.9621 19.008 12.028 19.008 12.0913 19.0357L11.4901 20.41ZM12.5001 20.41L13.11 21.7803L19.85 18.7803L19.2401 17.41L18.6301 16.0396L11.8901 19.0396L12.5001 20.41ZM19.2401 17.41L19.8426 18.7836C20.96 18.2935 21.6901 17.1731 21.6901 15.95H20.1901H18.6901C18.6901 15.9627 18.686 15.9822 18.6723 16.0032C18.6584 16.0245 18.6437 16.0336 18.6376 16.0363L19.2401 17.41ZM20.1901 15.95H21.6901C21.6901 16.3684 21.3485 16.71 20.9301 16.71V15.21V13.71C19.6916 13.71 18.6901 14.7115 18.6901 15.95H20.1901ZM20.9301 15.21V16.71C20.5116 16.71 20.1701 16.3684 20.1701 15.95H21.6701H23.1701C23.1701 14.7115 22.1685 13.71 20.9301 13.71V15.21ZM21.6701 15.95H20.1701C20.1701 16.5729 19.8024 17.1418 19.224 17.4023L19.8401 18.77L20.4561 20.1376C22.0977 19.3982 23.1701 17.767 23.1701 15.95H21.6701ZM19.8401 18.77L19.2301 17.3996L12.4901 20.3996L13.1001 21.77L13.71 23.1403L20.45 20.1403L19.8401 18.77ZM13.1001 21.77L12.4946 20.3976C12.3477 20.4624 12.1742 20.5 12.0001 20.5V22V23.5C12.586 23.5 13.1724 23.3775 13.7055 23.1423L13.1001 21.77Z" fill="white" mask="url(#path-4-inside-2_88_802)"/>
</svg>
