<svg width="24" height="24" viewBox="0 0 24 24" fill="none" xmlns="http://www.w3.org/2000/svg">
<path d="M15.6367 3.43408V3.43506L15.6475 3.44092L17.3779 4.43115C17.9239 4.74318 18.1154 5.44256 17.7998 5.99658C17.2703 6.92033 17.1305 7.93167 17.6094 8.75928C18.0884 9.58706 19.0345 9.97012 20.0996 9.97021C20.6919 9.97021 21.1882 10.4285 21.2529 11.0093L21.2598 11.1274V12.8804C21.2595 13.5133 20.7384 14.0296 20.1104 14.0298C19.0456 14.0298 18.098 14.4124 17.6201 15.2417C17.1424 16.0706 17.286 17.0817 17.8203 18.0044V18.0054C18.1138 18.5134 17.9667 19.1678 17.4961 19.5054L17.3975 19.5688L15.668 20.5591H15.667L15.6562 20.5649C15.2366 20.8146 14.6712 20.6746 14.4043 20.2261L14.2988 20.0444V20.0435C13.764 19.1208 12.9576 18.4927 12.001 18.4927C11.0441 18.4928 10.2409 19.1214 9.71094 20.0444L9.60547 20.2261C9.35528 20.6466 8.84249 20.7966 8.43359 20.6079L8.35352 20.5649L8.34277 20.5591L6.6123 19.5688L6.51367 19.5054C6.04378 19.169 5.89357 18.521 6.19043 18.0015C6.72355 17.0794 6.86691 16.0699 6.38965 15.2417C5.91179 14.4126 4.96498 14.0299 3.90039 14.0298C3.26731 14.0298 2.75024 13.5085 2.75 12.8804V11.1196C2.75017 10.4865 3.27214 9.97021 3.90039 9.97021C4.9649 9.97012 5.91169 9.58762 6.38965 8.76025C6.86727 7.93344 6.7239 6.92604 6.19043 6.0083H6.19141C5.89363 5.48719 6.04469 4.8302 6.51367 4.49365L6.6123 4.43115L8.34277 3.44092L8.35352 3.43408C8.77789 3.18177 9.33312 3.33114 9.57812 3.76123L9.58105 3.76611L9.69141 3.95557C10.2262 4.87822 11.0318 5.50712 11.9883 5.50732C12.9454 5.50732 13.7483 4.8779 14.2783 3.95459L14.2793 3.95557L14.3848 3.77295C14.6517 3.32474 15.2172 3.18453 15.6367 3.43408ZM12 7.99951C9.79593 7.99951 8.00023 9.79549 8 11.9995C8 14.2037 9.79579 15.9995 12 15.9995C14.2042 15.9995 16 14.2037 16 11.9995C15.9998 9.79549 14.2041 7.99951 12 7.99951Z" fill="white" stroke="white" stroke-width="1.5"/>
</svg>
