<svg width="24" height="24" viewBox="0 0 24 24" fill="none" xmlns="http://www.w3.org/2000/svg">
<path d="M11.2471 3.03027C11.6308 2.70212 12.2846 2.68161 12.7021 2.96875L12.7822 3.03027L14.3623 4.37988L14.3701 4.38672C14.6067 4.58373 14.9083 4.73611 15.1904 4.83887C15.4729 4.94173 15.8057 5.02051 16.1201 5.02051H17.8203C18.4659 5.02074 19 5.55455 19 6.2002V7.90039C19.0001 8.21551 19.0792 8.54632 19.1826 8.82715C19.2862 9.10829 19.4384 9.40617 19.6338 9.64062L19.6396 9.64746L20.9893 11.2275C21.3435 11.6521 21.3319 12.3583 20.9814 12.749L20.9697 12.7627L19.6201 14.3428L19.6133 14.3496C19.4179 14.5841 19.2657 14.8819 19.1621 15.1631C19.0587 15.4439 18.9795 15.7747 18.9795 16.0898V17.79C18.9795 18.4358 18.4456 18.9697 17.7998 18.9697H16.0996C15.7845 18.9698 15.4537 19.049 15.1729 19.1523C14.8917 19.2559 14.5939 19.4081 14.3594 19.6035L14.3525 19.6104L12.7725 20.96C12.3886 21.2882 11.7349 21.3087 11.3174 21.0215L11.2373 20.96L9.65723 19.6104V19.6094L9.65039 19.6035L9.46191 19.4648C9.26412 19.334 9.04144 19.2294 8.83105 19.1523C8.55133 19.05 8.22117 18.9698 7.91016 18.9697H6.16992C5.52413 18.9697 4.99023 18.4358 4.99023 17.79V16.0801C4.99023 15.7741 4.91481 15.446 4.81445 15.165C4.73981 14.9561 4.63596 14.7313 4.50195 14.5312L4.3584 14.3408L3.01172 12.7549L3.01074 12.7529L2.95117 12.6758C2.67333 12.27 2.68523 11.6177 3.0166 11.2178L4.36133 9.63574L4.36621 9.62988C4.56429 9.39209 4.7142 9.09161 4.81445 8.8125C4.91483 8.53298 4.99018 8.20712 4.99023 7.90039V6.2002C4.99023 5.55441 5.52414 5.02051 6.16992 5.02051H7.89941C8.21449 5.02051 8.54533 4.94124 8.82617 4.83789C9.10728 4.73441 9.40512 4.58204 9.63965 4.38672L9.64355 4.38281L11.2432 3.0332L11.2471 3.03027ZM12 6.62988C11.1759 6.62988 10.5001 7.30576 10.5 8.12988V12.96C10.5 13.5239 10.8164 14.0184 11.2803 14.2744C10.6686 14.5495 10.25 15.1635 10.25 15.8701C10.25 16.8343 11.0358 17.6201 12 17.6201C12.979 17.6201 13.75 16.8294 13.75 15.8701C13.75 15.1613 13.3248 14.5501 12.7168 14.2754C13.182 14.0198 13.5 13.525 13.5 12.96V8.12988C13.4999 7.3058 12.8241 6.62995 12 6.62988Z" fill="white" stroke="white" stroke-width="1.5"/>
</svg>
