<svg width="24" height="24" viewBox="0 0 24 24" fill="none" xmlns="http://www.w3.org/2000/svg">
<path d="M11.5 21C16.7467 21 21 16.7467 21 11.5C21 6.25329 16.7467 2 11.5 2C6.25329 2 2 6.25329 2 11.5C2 16.7467 6.25329 21 11.5 21Z" fill="white"/>
<path d="M11.5 2.75C16.3325 2.75 20.25 6.66751 20.25 11.5C20.25 16.3325 16.3325 20.25 11.5 20.25C6.66751 20.25 2.75 16.3325 2.75 11.5C2.75 6.66751 6.66751 2.75 11.5 2.75Z" stroke="white" stroke-opacity="0.6" stroke-width="1.5"/>
<mask id="path-3-inside-1_96_690" fill="white">
<path d="M21.3001 22.0001C21.1201 22.0001 20.9401 21.9301 20.8101 21.8001L18.9501 19.9401C18.6801 19.6701 18.6801 19.2301 18.9501 18.9501C19.2201 18.6801 19.6601 18.6801 19.9401 18.9501L21.8001 20.8101C22.0701 21.0801 22.0701 21.5201 21.8001 21.8001C21.6601 21.9301 21.4801 22.0001 21.3001 22.0001Z"/>
</mask>
<path d="M21.3001 22.0001C21.1201 22.0001 20.9401 21.9301 20.8101 21.8001L18.9501 19.9401C18.6801 19.6701 18.6801 19.2301 18.9501 18.9501C19.2201 18.6801 19.6601 18.6801 19.9401 18.9501L21.8001 20.8101C22.0701 21.0801 22.0701 21.5201 21.8001 21.8001C21.6601 21.9301 21.4801 22.0001 21.3001 22.0001Z" fill="white"/>
<path d="M20.8101 21.8001L19.7494 22.8607L20.8101 21.8001ZM18.9501 19.9401L20.0107 18.8794L18.9501 19.9401ZM18.9501 18.9501L17.8894 17.8894L17.8798 17.899L17.8703 17.9089L18.9501 18.9501ZM19.9401 18.9501L21.0007 17.8894L20.9911 17.8798L20.9813 17.8703L19.9401 18.9501ZM21.8001 20.8101L22.8607 19.7494L21.8001 20.8101ZM21.8001 21.8001L22.8207 22.8992L22.8511 22.8711L22.8798 22.8413L21.8001 21.8001ZM21.3001 22.0001V20.5001C21.4968 20.5001 21.7049 20.5735 21.8707 20.7394L20.8101 21.8001L19.7494 22.8607C20.1753 23.2866 20.7433 23.5001 21.3001 23.5001V22.0001ZM20.8101 21.8001L21.8707 20.7394L20.0107 18.8794L18.9501 19.9401L17.8894 21.0007L19.7494 22.8607L20.8101 21.8001ZM18.9501 19.9401L20.0107 18.8794C20.3369 19.2056 20.3097 19.701 20.0298 19.9913L18.9501 18.9501L17.8703 17.9089C17.0504 18.7591 17.0232 20.1345 17.8894 21.0007L18.9501 19.9401ZM18.9501 18.9501L20.0107 20.0107C19.6845 20.3369 19.1891 20.3097 18.8989 20.0298L19.9401 18.9501L20.9813 17.8703C20.131 17.0504 18.7556 17.0232 17.8894 17.8894L18.9501 18.9501ZM19.9401 18.9501L18.8794 20.0107L20.7394 21.8707L21.8001 20.8101L22.8607 19.7494L21.0007 17.8894L19.9401 18.9501ZM21.8001 20.8101L20.7394 21.8707C20.4132 21.5445 20.4404 21.0491 20.7203 20.7589L21.8001 21.8001L22.8798 22.8413C23.6997 21.991 23.7269 20.6156 22.8607 19.7494L21.8001 20.8101ZM21.8001 21.8001L20.7794 20.7009C20.9108 20.5788 21.0934 20.5001 21.3001 20.5001V22.0001V23.5001C21.8668 23.5001 22.4093 23.2813 22.8207 22.8992L21.8001 21.8001Z" fill="white" fill-opacity="0.6" mask="url(#path-3-inside-1_96_690)"/>
</svg>
