<svg preserveAspectRatio="none" width="100%" height="100%" overflow="visible" viewBox="0 0 24 24" fill="none" xmlns="http://www.w3.org/2000/svg">
<g id="vuesax/bold/note-2">
<g id="Vector">
<path d="M12.6778 19.957C12.9525 20.0209 12.9777 20.3807 12.7101 20.4699L11.1301 20.9899C7.1601 22.2699 5.0701 21.1999 3.7801 17.2299L2.5001 13.2799C1.2201 9.30992 2.2801 7.20992 6.2501 5.92992L6.94343 5.70031C7.27915 5.58913 7.60343 5.92492 7.50378 6.26424C7.4292 6.5182 7.3586 6.78676 7.2901 7.06992L6.3101 11.2599C5.2101 15.9699 6.8201 18.5699 11.5301 19.6899L12.6778 19.957Z" fill="white"/>
<path d="M6.56128 6.89355L6.55933 6.89941L5.57983 11.0889C5.00837 13.5358 5.10091 15.5968 6.10327 17.2158C7.0355 18.7213 8.66146 19.6932 10.8523 20.29C8.96325 20.8921 7.70029 20.876 6.79175 20.4111C5.87554 19.9424 5.11633 18.9141 4.4939 16.999L3.21362 13.0488C2.59618 11.1334 2.60802 9.85391 3.07495 8.93652C3.54137 8.02017 4.56596 7.26075 6.48022 6.64355L6.48608 6.6416L6.63745 6.59082L6.56128 6.89355Z" stroke="white" stroke-opacity="0.6" stroke-width="1.5"/>
</g>
<g id="Vector_2">
<path d="M17.17 3.20997L15.5 2.81997C12.16 2.02997 10.17 2.67997 9.00002 5.09997C8.70002 5.70997 8.46002 6.44997 8.26002 7.29997L7.28002 11.49C6.30002 15.67 7.59002 17.73 11.76 18.72L13.44 19.12C14.02 19.26 14.56 19.35 15.06 19.39C18.18 19.69 19.84 18.23 20.68 14.62L21.66 10.44C22.64 6.25997 21.36 4.18997 17.17 3.20997ZM15.29 13.33C15.2 13.67 14.9 13.89 14.56 13.89C14.5 13.89 14.44 13.88 14.37 13.87L11.46 13.13C11.06 13.03 10.82 12.62 10.92 12.22C11.02 11.82 11.43 11.58 11.83 11.68L14.74 12.42C15.15 12.52 15.39 12.93 15.29 13.33ZM18.22 9.94997C18.13 10.29 17.83 10.51 17.49 10.51C17.43 10.51 17.37 10.5 17.3 10.49L12.45 9.25997C12.05 9.15997 11.81 8.74997 11.91 8.34997C12.01 7.94997 12.42 7.70997 12.82 7.80997L17.67 9.03997C18.08 9.12997 18.32 9.53997 18.22 9.94997Z" fill="white"/>
<path d="M11.6805 3.46529C12.5481 3.16587 13.7181 3.16973 15.327 3.55025H15.3299L16.9989 3.9399C19.0215 4.41297 20.1515 5.10932 20.7166 6.01998C21.2817 6.93074 21.4026 8.25114 20.9295 10.269L19.95 14.4487L19.9491 14.4497C19.5442 16.1894 18.9702 17.2745 18.2371 17.9018C17.5295 18.5072 16.5609 18.7804 15.1317 18.643L15.12 18.642L14.7703 18.6059C14.4122 18.5611 14.0276 18.4904 13.616 18.3911L13.6141 18.3901L11.9334 17.9907C9.92 17.5127 8.79108 16.8165 8.22542 15.9057C7.66035 14.9959 7.5378 13.6783 8.01058 11.6616V11.6606L8.99007 7.47213C9.18274 6.65328 9.40664 5.97214 9.67269 5.43111L9.67562 5.42623C10.1938 4.35453 10.848 3.75272 11.6805 3.46529ZM11.8631 10.9233C11.1683 10.8221 10.4802 11.2184 10.2371 11.8901L10.1922 12.0385C9.99438 12.831 10.4673 13.6552 11.2782 13.8579V13.8569L14.1854 14.5971L14.2244 14.6069L14.2635 14.6128C14.3041 14.6186 14.4329 14.6401 14.5604 14.6401C15.2306 14.6399 15.8359 14.2003 16.0155 13.5219L16.0174 13.5122C16.2169 12.7142 15.7364 11.8908 14.9168 11.6909L12.0145 10.9536L12.0116 10.9526L11.8631 10.9233ZM12.8534 7.05318C12.1585 6.9519 11.4706 7.34837 11.2274 8.01998L11.1825 8.16842C10.9845 8.96093 11.4575 9.78502 12.2684 9.98775V9.98678L17.116 11.2172L17.1541 11.227L17.1942 11.2329C17.2351 11.2387 17.3629 11.2602 17.4901 11.2602C18.1603 11.2602 18.7655 10.8205 18.9451 10.142L18.9471 10.1352L18.9491 10.1274C19.1406 9.34144 18.6856 8.50869 17.8534 8.31295H17.8543L13.0047 7.08346L13.0018 7.08248L12.8534 7.05318Z" stroke="white" stroke-opacity="0.6" stroke-width="1.5"/>
</g>
<path id="Vector_3" opacity="0" d="M0.749836 23.25L0.749836 0.75004L23.2498 0.75004L23.2498 23.25L0.749836 23.25Z" stroke="white" stroke-opacity="0.6" stroke-width="1.5"/>
</g>
</svg>
