<svg width="20" height="20" viewBox="0 0 20 20" fill="none" xmlns="http://www.w3.org/2000/svg">
<path d="M12.2552 3.59458H7.74517C7.19998 3.59437 6.66008 3.70157 6.15633 3.91008C5.65258 4.1186 5.19486 4.42432 4.80931 4.8098C4.42376 5.19527 4.11794 5.65293 3.90933 6.15664C3.70071 6.66035 3.5934 7.20022 3.59351 7.74542V12.2554C3.59329 12.8007 3.70052 13.3406 3.90909 13.8445C4.11765 14.3483 4.42345 14.806 4.80901 15.1916C5.19457 15.5771 5.65234 15.8829 6.15614 16.0915C6.65994 16.3001 7.19991 16.4073 7.74517 16.4071H12.2552C12.8004 16.4073 13.3404 16.3001 13.8442 16.0915C14.348 15.8829 14.8058 15.5771 15.1913 15.1916C15.5769 14.806 15.8827 14.3483 16.0913 13.8445C16.2998 13.3406 16.4071 12.8007 16.4068 12.2554V7.74542C16.4071 7.20015 16.2998 6.66019 16.0913 6.15638C15.8827 5.65258 15.5769 5.19482 15.1913 4.80926C14.8058 4.4237 14.348 4.11789 13.8442 3.90933C13.3404 3.70077 12.8004 3.59353 12.2552 3.59375V3.59458Z" stroke="white" stroke-width="1.5"/>
<path d="M16.338 12.9909H17.6872C17.9137 12.9909 18.131 12.9009 18.2912 12.7407C18.4513 12.5805 18.5413 12.3633 18.5413 12.1367V7.86589C18.5413 7.63935 18.4513 7.42209 18.2912 7.2619C18.131 7.10171 17.9137 7.01172 17.6872 7.01172H16.3372M3.66217 12.9909H2.31217C2.2 12.9909 2.08893 12.9688 1.9853 12.9259C1.88167 12.8829 1.7875 12.82 1.70819 12.7407C1.62887 12.6614 1.56595 12.5672 1.52303 12.4636C1.4801 12.36 1.45801 12.2489 1.45801 12.1367V7.86589C1.45801 7.63935 1.548 7.42209 1.70819 7.2619C1.86837 7.10171 2.08564 7.01172 2.31217 7.01172H3.66217" stroke="white" stroke-width="1.5"/>
<path d="M2.30444 7.01042V3.59375M17.6878 7.01042L17.6794 3.59375M7.42944 7.30208V9.55042M12.5544 7.30208V9.55042M8.28361 12.9896H11.7003" stroke="white" stroke-width="1.5" stroke-linecap="round" stroke-linejoin="round"/>
</svg>
