<svg width="20" height="20" viewBox="0 0 20 20" fill="none" xmlns="http://www.w3.org/2000/svg">
<g clip-path="url(#clip0_88_919)">
<path d="M4.16659 1.6665H15.8333C16.0543 1.6665 16.2662 1.7543 16.4225 1.91058C16.5788 2.06686 16.6666 2.27882 16.6666 2.49984V18.4523C16.6667 18.5268 16.6468 18.6 16.609 18.6642C16.5712 18.7284 16.5169 18.7813 16.4517 18.8174C16.3865 18.8535 16.3129 18.8714 16.2384 18.8694C16.1639 18.8673 16.0913 18.8453 16.0283 18.8057L9.99992 15.0248L3.97159 18.8048C3.90856 18.8444 3.83607 18.8664 3.76167 18.8685C3.68727 18.8706 3.61366 18.8528 3.5485 18.8168C3.48334 18.7808 3.42901 18.728 3.39115 18.6639C3.3533 18.5998 3.33331 18.5268 3.33325 18.4523V2.49984C3.33325 2.27882 3.42105 2.06686 3.57733 1.91058C3.73361 1.7543 3.94557 1.6665 4.16659 1.6665Z" fill="#7D26CD"/>
</g>
<defs>
<clipPath id="clip0_88_919">
<rect width="20" height="20" fill="white"/>
</clipPath>
</defs>
</svg>
